<svg id="ask-us-logo" xmlns="http://www.w3.org/2000/svg" viewBox="0 0 140.04 140.11"><defs><style>.cls-1{fill:#fff;}</style></defs><path class="cls-1" d="M12.71,36,15,35.82l.09,1.06L12.71,37l1.06,2.17-1,.47-1-2.12L10.23,39l-.73-.79,1.7-1.46-2-1.17.52-.9,2,1.17.42-2.22,1,.23Z"/><path class="cls-1" d="M27.05,27.26l-3.79,4.18,2,3.75L24,36.54,17.64,23.75l1.23-1.35L32.2,27.5,31,28.84Zm-1.51-.6-4-1.58c-.8-.31-1.5-.61-2.11-.88h0c.3.5.65,1.16,1.09,2l2,3.79Z"/><path class="cls-1" d="M31.32,22.6c1.22,1.69,3.17,1.79,4.86.56S38.7,20.45,37.64,19a1.43,1.43,0,0,0-1-.64c-.76-.11-1.46.19-2.76.83l-1.13.51a17.15,17.15,0,0,1-2.19.74A3.25,3.25,0,0,1,27,19.19c-1.52-2.11-.26-4.42,1.63-5.79,2.42-1.75,4.81-1.91,6.78.32L34.19,15c-1.2-1.59-3-1.73-4.72-.46-1.1.8-1.92,2.31-1,3.52s2.51.56,4.42-.4a18.29,18.29,0,0,1,2.49-1.07A3,3,0,0,1,39,17.83c1.8,2.49.31,4.84-1.94,6.47-2.43,1.76-5.36,1.95-7.12-.48Z"/><path class="cls-1" d="M44.06,12.47l-1,2.52,1.85,4.23-1.58.69L38,7.72,39.61,7l2.57,5.87,3.23-8.41,2.11-.92-2.83,7.25L53,15.71l-2,.86Z"/><path class="cls-1" d="M56.62,1.22,58.34,1l1,8.85c.24,2,1.92,2.89,3.8,2.67s3.33-1.45,3.09-3.48L65.23.2,67,0l1,8.85c.35,3-1.29,4.81-4.63,5.2s-5.34-1-5.69-4Z"/><path class="cls-1" d="M73,8.87c-.22,2.08,1.17,3.45,3.25,3.67s3.68-.33,3.87-2.13a1.41,1.41,0,0,0-.3-1.12c-.49-.59-1.21-.83-2.6-1.23-.54-.15-.93-.29-1.19-.37a16.94,16.94,0,0,1-2.12-.92,3.24,3.24,0,0,1-1.81-3.28C72.35.9,74.83,0,77.15.26,80.12.58,82,2.06,82,5l-1.81.14c.17-2-1-3.27-3.21-3.5-1.36-.14-3,.44-3.12,1.93s1.5,2.09,3.56,2.65A17.14,17.14,0,0,1,80,7.11a3,3,0,0,1,1.92,3.36c-.32,3.06-3,3.8-5.76,3.51-3-.31-5.29-2.12-5-5.11Z"/><path class="cls-1" d="M95.68,15.06l-5.22-2.14L87.6,16l-1.69-.69L95.79,5l1.69.69L97.21,20l-1.67-.69Zm0-1.62.14-4.28c0-.85.07-1.62.12-2.28h0c-.37.44-.87,1-1.5,1.7l-2.9,3.15Z"/><path class="cls-1" d="M106.36,10.08l1.5,1.07-.58,9.44c0,.9-.18,1.87-.37,3.42h0c.27-.42.59-.93,1-1.52s.71-1,.89-1.29L113.24,15l1.38,1-7.71,10.85-1.58-1.13.63-9.41c0-.3.06-.8.14-1.51s.18-1.34.27-1.88h0l-1,1.56c-.37.56-.65,1-.84,1.25L100,21.9l-1.38-1Z"/><path class="cls-1" d="M115.71,27.66,118.17,19l1.33,1.48-1.31,4.21-.15.44-.74,2.24.65-.16,2.1-.46,4.32-.88,1.35,1.49-8.85,1.57-4.22,3.81-1.16-1.28Z"/><path class="cls-1" d="M128.59,34.62l-2.24-3.81,1.29-.77L133,39.16l-1.29.76-2.25-3.81-10.17,6-.87-1.49Z"/><path class="cls-1" d="M134.92,43.45l.54,1.65-5.52,1.81L132,53.24l5.52-1.81.54,1.65-12.64,4.14-.53-1.64,5.64-1.86-2.07-6.33-5.65,1.85-.54-1.64Z"/><path class="cls-1" d="M139,58.59l.26,1.71-13.15,2-.26-1.71Z"/><path class="cls-1" d="M140,65.87l0,1.84-8.12,4.87c-.77.46-1.65.91-3,1.62v0c.5,0,1.1,0,1.81,0s1.25,0,1.57,0l7.66.13,0,1.69-13.3-.22,0-1.94L134.73,69c.25-.16.69-.4,1.32-.73s1.21-.61,1.71-.85v0l-1.88,0c-.67,0-1.18,0-1.5,0l-7.66-.12,0-1.69Z"/><path class="cls-1" d="M130.23,91.71,123.41,90l.35-1.37,1.8.31a4.86,4.86,0,0,1-.93-4.63c1-3.89,4-5.5,8.24-4.4,3.95,1,6.09,3.92,5.09,7.82a5.5,5.5,0,0,1-5.45,4.47l.12-1.89a3.85,3.85,0,0,0,3.88-2.91,4,4,0,0,0-.59-3.72,6.74,6.74,0,0,0-3.53-1.91,7,7,0,0,0-4.07,0c-1.13.44-1.87,1.47-2.3,3.14-.63,2.45.42,4.09,3.08,4.83l1-3.82,1.56.4Z"/><path class="cls-1" d="M128.79,101.58l-2.33.31-.13-1,2.41-.27-1.15-2.12.95-.51,1.07,2.08,1.52-1.54.77.76-1.64,1.53,2.08,1.08-.49.92-2.07-1.08-.32,2.23-1.06-.19Z"/><path class="cls-1" d="M114.83,111l3.61-4.34L116.32,103l1.17-1.4,6.89,12.51-1.17,1.41L109.67,111l1.16-1.39Zm1.53.53,4,1.41c.81.28,1.52.55,2.14.79h0c-.31-.49-.7-1.13-1.18-2l-2.13-3.7Z"/><path class="cls-1" d="M110.76,115.81c-1.29-1.64-3.24-1.65-4.88-.35s-2.4,2.81-1.28,4.23a1.38,1.38,0,0,0,1,.59c.76.08,1.45-.25,2.72-.94.49-.27.86-.44,1.11-.56a16.53,16.53,0,0,1,2.15-.83,3.24,3.24,0,0,1,3.59,1.09c1.62,2,.46,4.4-1.37,5.85-2.34,1.85-4.73,2.11-6.79,0l1.2-1.36c1.27,1.54,3,1.59,4.73.25,1.08-.85,1.83-2.38.9-3.56s-2.54-.44-4.4.59A18.5,18.5,0,0,1,107,122a3,3,0,0,1-3.72-1.06c-1.91-2.41-.51-4.82,1.66-6.54,2.36-1.86,5.28-2.18,7.14.17Z"/><path class="cls-1" d="M98.47,126.48l.86-2.56-2-4.15,1.56-.76L104.71,131l-1.55.76L100.34,126l-2.86,8.54-2.07,1,2.51-7.36-8.48-4.52,1.93-.95Z"/><path class="cls-1" d="M86.41,138.25l-1.71.28-1.42-8.8c-.33-2-2-2.81-3.91-2.5s-3.27,1.59-2.94,3.61l1.43,8.8-1.71.27-1.43-8.79c-.47-3,1.09-4.85,4.4-5.39s5.39.78,5.86,3.73Z"/><path class="cls-1" d="M69.76,131.31c.13-2.09-1.31-3.4-3.39-3.53s-3.67.49-3.79,2.3a1.45,1.45,0,0,0,.35,1.1,4.84,4.84,0,0,0,2.66,1.12c.54.13.93.25,1.2.32a16.22,16.22,0,0,1,2.15.83,3.23,3.23,0,0,1,2,3.2c-.16,2.6-2.6,3.59-4.93,3.44-3-.18-4.93-1.58-5-4.56l1.8-.21c-.08,2,1.19,3.22,3.35,3.35,1.37.09,3-.55,3-2s-1.58-2-3.67-2.5a19.15,19.15,0,0,1-2.6-.75,3,3,0,0,1-2.06-3.27c.2-3.08,2.84-3.94,5.61-3.76,3,.18,5.38,1.9,5.2,4.89Z"/><path class="cls-1" d="M46.78,126.09,52.09,128l2.73-3.24,1.71.62-9.42,10.74-1.72-.63L45,121.24l1.7.62Zm0,1.63.05,4.28c0,.85,0,1.62,0,2.28h0c.35-.46.82-1,1.43-1.76L51,129.25Z"/><path class="cls-1" d="M36.33,131.54l-1.55-1,.18-9.46c0-.89.1-1.88.23-3.43h0c-.25.43-.55,1-.92,1.56s-.66,1.06-.84,1.33L29.25,127,27.83,126l7.23-11.16,1.63,1-.23,9.43c0,.3,0,.8-.07,1.52s-.13,1.34-.19,1.89h0l1-1.61c.35-.57.61-1,.79-1.28l4.16-6.42,1.42.91Z"/><path class="cls-1" d="M26.23,114.36l-2.09,8.75-1.4-1.43,1.14-4.26L24,117l.66-2.27-.65.19-2.07.54-4.29,1.07-1.41-1.44L25,113.13l4.05-4,1.21,1.23Z"/><path class="cls-1" d="M13.07,108l2.41,3.71-1.26.82-5.76-8.88,1.26-.82,2.41,3.72L22,100.1l.94,1.45Z"/><path class="cls-1" d="M6.38,99.44l-.61-1.62,5.44-2L8.86,89.54l-5.44,2L2.81,90l12.44-4.69.61,1.62L10.3,89l2.35,6.24,5.56-2.09.61,1.61Z"/><path class="cls-1" d="M1.6,84.48l-.33-1.7,13.05-2.57.33,1.7Z"/><path class="cls-1" d="M.3,77.25l0-1.85,7.88-5.23c.75-.5,1.61-1,2.95-1.76v0c-.49,0-1.1.09-1.8.13s-1.25,0-1.57.06l-7.66.23,0-1.69,13.3-.39.06,1.93L5.47,73.84c-.25.18-.68.44-1.29.8s-1.18.66-1.67.92v0l1.88-.11,1.5-.08,7.66-.23,0,1.69Z"/><path class="cls-1" d="M9,51l6.9,1.45-.29,1.38-1.82-.23a4.85,4.85,0,0,1,1.13,4.59c-.83,3.92-3.72,5.66-8,4.75-4-.84-6.26-3.65-5.42-7.59a5.47,5.47,0,0,1,5.24-4.7l0,1.9a3.86,3.86,0,0,0-3.76,3.07,4.06,4.06,0,0,0,.76,3.69,6.73,6.73,0,0,0,3.61,1.75A6.87,6.87,0,0,0,11.32,61c1.12-.48,1.8-1.54,2.16-3.23.52-2.47-.6-4.07-3.28-4.69l-.82,3.86L7.8,56.56Z"/></svg>
