<svg id="title-logo" xmlns="http://www.w3.org/2000/svg" viewBox="0 0 435.91 63.41"><defs><style>.cls-1{fill:#fff;}</style></defs><path class="cls-1" d="M25.6,63.41C13.69,63.41.93,58.29,0,44.05l8.85-1c.73,8.59,7.18,14,16.84,14C39.84,57.14,42,49.88,42,45.55v-.11c-.54-7.24-5.26-8.13-13.83-9.76l-.22,0c-2.87-.46-4.66-.82-5.33-1C7.75,31.42,1.91,26.47,1.69,17,1.69,4.47,13.33,0,24.22,0c14.4,0,22.54,6,24.21,17.72l-8.62,1.49c-1-8.42-6.48-13-15.68-13-8.38,0-13.79,4.05-13.79,10.31.47,7.31,8.12,9.15,17.31,10.65,15.35,2.61,22.72,6,23.05,18,0,6.65-2.22,11.24-6.8,14C39.1,62,33.12,63.41,25.6,63.41Z"/><polygon class="cls-1" points="71.52 62.31 71.52 7.82 50.7 7.82 50.7 1.1 100.9 1.1 100.9 7.82 79.98 7.82 79.98 62.31 71.52 62.31"/><path class="cls-1" d="M131.72,63.41c-11.2,0-24.55-3.62-24.55-20.88V1.1h8.46v41c0,9.13,6.17,14.8,16.09,14.8s16.17-5.81,16.17-14.8V1.1h8.47V42.53C156.36,59.79,143,63.41,131.72,63.41Z"/><path class="cls-1" d="M164.91,62.31V1.1h21.34c18.81,0,30.05,11.44,30.05,30.6s-11.24,30.61-30.05,30.61ZM173.37,56h12c8,0,13.93-2.4,17.26-6.94,3.08-4.23,4.51-9.76,4.51-17.4,0-8-1.17-12.7-4.3-17.26s-9-7.07-17.47-7.07h-12Z"/><rect class="cls-1" x="223.17" y="1.1" width="8.47" height="61.21"/><path class="cls-1" d="M268.46,63.41c-19.32,0-30-11.26-30-31.71C238.5,12.15,250,0,268.46,0c18.2,0,30,12.44,30,31.7C298.42,51.26,286.94,63.41,268.46,63.41Zm.37-57.15c-7.08,0-12.81,2.4-16.14,6.74-3.12,3.89-5,10.89-5,18.7s1.64,14.24,4.61,18.23c3.38,4.65,9.12,7.21,16.15,7.21,7.27,0,12.62-2.37,15.9-7.06,3.16-4.4,4.77-10.59,4.77-18.38s-1.65-14.09-4.77-18.48C281.05,8.6,275.82,6.26,268.83,6.26Z"/><path class="cls-1" d="M347.32,63.41c-11.91,0-24.67-5.12-25.6-19.36l8.85-1c.73,8.59,7.18,14,16.84,14,14.15,0,16.26-7.26,16.26-11.59v-.11c-.54-7.24-5.26-8.13-13.83-9.76l-.23,0c-2.86-.46-4.65-.82-5.32-1-14.82-3.23-20.66-8.18-20.88-17.66,0-12.52,11.64-17,22.53-17,14.4,0,22.54,6,24.21,17.72l-8.63,1.49c-1-8.42-6.47-13-15.67-13-8.38,0-13.79,4.05-13.79,10.31.47,7.31,8.11,9.15,17.31,10.65,15.35,2.61,22.72,6,23.05,18,0,6.65-2.23,11.24-6.8,14C360.82,62,354.83,63.41,347.32,63.41Z"/><path class="cls-1" d="M406,63.41c-19.32,0-30-11.26-30-31.71C376,12.15,387.47,0,406,0c18.2,0,30,12.44,30,31.7C435.91,51.26,424.43,63.41,406,63.41Zm.36-57.15c-7.07,0-12.81,2.4-16.14,6.74-3.11,3.89-5,10.89-5,18.7s1.63,14.24,4.6,18.23c3.39,4.65,9.13,7.21,16.16,7.21,7.26,0,12.61-2.37,15.9-7.06,3.16-4.4,4.77-10.59,4.77-18.38S425,17.61,421.85,13.22C418.53,8.6,413.31,6.26,406.31,6.26Z"/></svg>
